<svg width="209" height="194" viewBox="0 0 209 194" fill="none" xmlns="http://www.w3.org/2000/svg">
<rect width="209" height="194" fill="#F5F5F5"/>
<path d="M107.992 4.66215L148.777 26.1197L188.643 47.8789C191.032 49.1825 192.527 51.6772 192.55 54.398L192.915 97L192.55 139.602C192.527 142.323 191.032 144.818 188.643 146.121L148.777 167.88L107.992 189.338C105.806 190.488 103.194 190.488 101.008 189.338L60.2235 167.88L20.3565 146.121C17.9682 144.818 16.4732 142.323 16.4499 139.602L16.0851 97L16.4499 54.398C16.4732 51.6772 17.9682 49.1825 20.3565 47.8789L60.2234 26.1197L101.008 4.66215C103.194 3.51204 105.806 3.51204 107.992 4.66215Z" stroke="#FFAC41" stroke-width="5"/>
</svg>
