<svg width="98" height="104" viewBox="0 0 98 104" fill="none" xmlns="http://www.w3.org/2000/svg">
<rect width="98" height="104" fill="#F5F5F5"/>
<path d="M52.309 4.17946L71.9214 14.7003L90.9506 25.2899C93.152 26.515 94.5253 28.8286 94.5464 31.3478L94.7199 52L94.5464 72.6522C94.5253 75.1714 93.152 77.485 90.9506 78.7101L71.9214 89.2997L52.309 99.8205C50.2423 100.929 47.7577 100.929 45.691 99.8205L26.0786 89.2997L7.04941 78.7101C4.84801 77.485 3.47473 75.1714 3.45357 72.6522L3.2801 52L3.45357 31.3478C3.47473 28.8286 4.84801 26.515 7.04941 25.2899L26.0786 14.7003L45.691 4.17946C47.7577 3.0708 50.2423 3.0708 52.309 4.17946Z" stroke="#FF0032" stroke-width="6"/>
</svg>
