<svg width="145" height="135" viewBox="0 0 145 135" fill="none" xmlns="http://www.w3.org/2000/svg">
<rect width="145" height="135" fill="#F5F5F5"/>
<circle cx="7.5" cy="7.5" r="7.5" fill="#D9D9D9" fill-opacity="0.5"/>
<circle cx="111.5" cy="7.5" r="7.5" fill="#D9D9D9" fill-opacity="0.5"/>
<circle cx="7.5" cy="37.5" r="7.5" fill="#D9D9D9" fill-opacity="0.5"/>
<circle cx="111.5" cy="37.5" r="7.5" fill="#D9D9D9" fill-opacity="0.5"/>
<circle cx="7.5" cy="67.5" r="7.5" fill="#D9D9D9" fill-opacity="0.5"/>
<circle cx="111.5" cy="67.5" r="7.5" fill="#D9D9D9" fill-opacity="0.5"/>
<circle cx="7.5" cy="97.5" r="7.5" fill="#D9D9D9" fill-opacity="0.5"/>
<circle cx="111.5" cy="97.5" r="7.5" fill="#D9D9D9" fill-opacity="0.5"/>
<circle cx="7.5" cy="127.5" r="7.5" fill="#D9D9D9" fill-opacity="0.5"/>
<circle cx="111.5" cy="127.5" r="7.5" fill="#D9D9D9" fill-opacity="0.5"/>
<circle cx="33.5" cy="7.5" r="7.5" fill="#D9D9D9" fill-opacity="0.5"/>
<circle cx="137.5" cy="7.5" r="7.5" fill="#D9D9D9" fill-opacity="0.5"/>
<circle cx="33.5" cy="37.5" r="7.5" fill="#D9D9D9" fill-opacity="0.5"/>
<circle cx="137.5" cy="37.5" r="7.5" fill="#D9D9D9" fill-opacity="0.5"/>
<circle cx="33.5" cy="67.5" r="7.5" fill="#D9D9D9" fill-opacity="0.5"/>
<circle cx="137.5" cy="67.5" r="7.5" fill="#D9D9D9" fill-opacity="0.5"/>
<circle cx="33.5" cy="97.5" r="7.5" fill="#D9D9D9" fill-opacity="0.5"/>
<circle cx="137.5" cy="97.5" r="7.5" fill="#D9D9D9" fill-opacity="0.5"/>
<circle cx="33.5" cy="127.5" r="7.5" fill="#D9D9D9" fill-opacity="0.5"/>
<circle cx="137.5" cy="127.5" r="7.5" fill="#D9D9D9" fill-opacity="0.5"/>
<circle cx="59.5" cy="7.5" r="7.5" fill="#D9D9D9" fill-opacity="0.5"/>
<circle cx="59.5" cy="37.5" r="7.5" fill="#D9D9D9" fill-opacity="0.5"/>
<circle cx="59.5" cy="67.5" r="7.5" fill="#D9D9D9" fill-opacity="0.5"/>
<circle cx="59.5" cy="97.5" r="7.5" fill="#D9D9D9" fill-opacity="0.5"/>
<circle cx="59.5" cy="127.5" r="7.5" fill="#D9D9D9" fill-opacity="0.5"/>
<circle cx="85.5" cy="7.5" r="7.5" fill="#D9D9D9" fill-opacity="0.5"/>
<circle cx="85.5" cy="37.5" r="7.5" fill="#D9D9D9" fill-opacity="0.5"/>
<circle cx="85.5" cy="67.5" r="7.5" fill="#D9D9D9" fill-opacity="0.5"/>
<circle cx="85.5" cy="97.5" r="7.5" fill="#D9D9D9" fill-opacity="0.5"/>
<circle cx="85.5" cy="127.5" r="7.5" fill="#D9D9D9" fill-opacity="0.5"/>
</svg>
